<mxfile host="65bd71144e" pages="3">
    <diagram name="Page-1" id="11JT1FKlp_cMiq5dkE4Q">
        <mxGraphModel dx="682" dy="434" grid="0" gridSize="10" guides="1" tooltips="1" connect="1" arrows="1" fold="1" page="0" pageScale="1" pageWidth="850" pageHeight="1100" math="0" shadow="0">
            <root>
                <mxCell id="0"/>
                <mxCell id="1" parent="0"/>
                <mxCell id="EjmhhStqIavh0LbDUjfV-1" style="rounded=0;orthogonalLoop=1;jettySize=auto;html=1;" parent="1" source="QC1hzphOcZGOX3E_Fbhh-1" target="QC1hzphOcZGOX3E_Fbhh-3" edge="1">
                    <mxGeometry relative="1" as="geometry"/>
                </mxCell>
                <mxCell id="88bM_PpTZdCxMXnMbvHL-3" style="edgeStyle=orthogonalEdgeStyle;rounded=0;orthogonalLoop=1;jettySize=auto;html=1;entryX=0;entryY=0.5;entryDx=0;entryDy=0;" parent="1" source="QC1hzphOcZGOX3E_Fbhh-1" target="QC1hzphOcZGOX3E_Fbhh-4" edge="1">
                    <mxGeometry relative="1" as="geometry"/>
                </mxCell>
                <mxCell id="QC1hzphOcZGOX3E_Fbhh-1" value="&amp;lt;&amp;lt;System&amp;gt;&amp;gt;&lt;br&gt;Projects/Tasks management for Office Company" style="rounded=0;whiteSpace=wrap;html=1;" parent="1" vertex="1">
                    <mxGeometry x="148.5" y="237" width="175" height="98" as="geometry"/>
                </mxCell>
                <mxCell id="QC1hzphOcZGOX3E_Fbhh-4" value="&amp;lt;&amp;lt;System&amp;gt;&amp;gt;&lt;div&gt;Task Management&lt;/div&gt;" style="rounded=0;whiteSpace=wrap;html=1;" parent="1" vertex="1">
                    <mxGeometry x="434" y="256" width="120" height="60" as="geometry"/>
                </mxCell>
                <mxCell id="QC1hzphOcZGOX3E_Fbhh-2" value="&amp;lt;&amp;lt;System&amp;gt;&amp;gt;&lt;br&gt;Calender Management" style="rounded=0;whiteSpace=wrap;html=1;" parent="1" vertex="1">
                    <mxGeometry x="183" y="79" width="120" height="60" as="geometry"/>
                </mxCell>
                <mxCell id="QC1hzphOcZGOX3E_Fbhh-3" value="&amp;lt;&amp;lt;System&amp;gt;&amp;gt;&lt;div&gt;Projects Management System&lt;/div&gt;" style="rounded=0;whiteSpace=wrap;html=1;" parent="1" vertex="1">
                    <mxGeometry x="-77" y="253" width="120" height="60" as="geometry"/>
                </mxCell>
                <mxCell id="88bM_PpTZdCxMXnMbvHL-4" style="edgeStyle=orthogonalEdgeStyle;rounded=0;orthogonalLoop=1;jettySize=auto;html=1;entryX=0.445;entryY=0.957;entryDx=0;entryDy=0;entryPerimeter=0;" parent="1" source="QC1hzphOcZGOX3E_Fbhh-1" target="QC1hzphOcZGOX3E_Fbhh-2" edge="1">
                    <mxGeometry relative="1" as="geometry"/>
                </mxCell>
            </root>
        </mxGraphModel>
    </diagram>
    <diagram id="UU35joSLgJ0_cnc_G92q" name="UseCase">
        <mxGraphModel dx="489" dy="571" grid="0" gridSize="10" guides="1" tooltips="1" connect="1" arrows="1" fold="1" page="0" pageScale="1" pageWidth="850" pageHeight="1100" math="0" shadow="0">
            <root>
                <mxCell id="0"/>
                <mxCell id="1" parent="0"/>
                <mxCell id="Zst3fWVYxJrD-MXoVC2P-9" value="" style="rounded=0;whiteSpace=wrap;html=1;fontFamily=Helvetica;fontSize=11;fontColor=default;labelBackgroundColor=default;" parent="1" vertex="1">
                    <mxGeometry x="216" y="203" width="444.21" height="521" as="geometry"/>
                </mxCell>
                <mxCell id="Zst3fWVYxJrD-MXoVC2P-12" style="edgeStyle=none;shape=connector;rounded=0;orthogonalLoop=1;jettySize=auto;html=1;exitX=1;exitY=1;exitDx=0;exitDy=0;strokeColor=#b85450;align=center;verticalAlign=middle;fontFamily=Helvetica;fontSize=11;fontColor=default;labelBackgroundColor=default;startFill=1;endArrow=none;endFill=1;startArrow=classic;fillColor=#f8cecc;" parent="1" source="FOkYjH_AzvrzRrDnmwD8-1" target="FOkYjH_AzvrzRrDnmwD8-9" edge="1">
                    <mxGeometry relative="1" as="geometry"/>
                </mxCell>
                <mxCell id="Zst3fWVYxJrD-MXoVC2P-14" value="extend" style="edgeLabel;html=1;align=center;verticalAlign=middle;resizable=0;points=[];fontFamily=Helvetica;fontSize=11;fontColor=default;labelBackgroundColor=default;" parent="Zst3fWVYxJrD-MXoVC2P-12" connectable="0" vertex="1">
                    <mxGeometry x="0.0712" y="-1" relative="1" as="geometry">
                        <mxPoint as="offset"/>
                    </mxGeometry>
                </mxCell>
                <mxCell id="FOkYjH_AzvrzRrDnmwD8-1" value="Manage Task" style="ellipse;whiteSpace=wrap;html=1;" parent="1" vertex="1">
                    <mxGeometry x="296" y="264" width="120" height="80" as="geometry"/>
                </mxCell>
                <mxCell id="Zst3fWVYxJrD-MXoVC2P-1" style="rounded=0;orthogonalLoop=1;jettySize=auto;html=1;entryX=0;entryY=0;entryDx=0;entryDy=0;endArrow=none;startFill=0;" parent="1" source="FOkYjH_AzvrzRrDnmwD8-2" target="FOkYjH_AzvrzRrDnmwD8-10" edge="1">
                    <mxGeometry relative="1" as="geometry"/>
                </mxCell>
                <mxCell id="Zst3fWVYxJrD-MXoVC2P-2" style="rounded=0;orthogonalLoop=1;jettySize=auto;html=1;entryX=0;entryY=0.5;entryDx=0;entryDy=0;endArrow=none;startFill=0;" parent="1" source="FOkYjH_AzvrzRrDnmwD8-2" target="FOkYjH_AzvrzRrDnmwD8-1" edge="1">
                    <mxGeometry relative="1" as="geometry"/>
                </mxCell>
                <mxCell id="Zst3fWVYxJrD-MXoVC2P-3" style="edgeStyle=none;shape=connector;rounded=0;orthogonalLoop=1;jettySize=auto;html=1;entryX=0;entryY=0.5;entryDx=0;entryDy=0;strokeColor=default;align=center;verticalAlign=middle;fontFamily=Helvetica;fontSize=11;fontColor=default;labelBackgroundColor=default;endArrow=none;startFill=0;" parent="1" source="FOkYjH_AzvrzRrDnmwD8-2" target="FOkYjH_AzvrzRrDnmwD8-9" edge="1">
                    <mxGeometry relative="1" as="geometry"/>
                </mxCell>
                <mxCell id="FOkYjH_AzvrzRrDnmwD8-2" value="Project Manager" style="shape=umlActor;verticalLabelPosition=bottom;verticalAlign=top;html=1;" parent="1" vertex="1">
                    <mxGeometry x="115" y="274" width="30" height="60" as="geometry"/>
                </mxCell>
                <mxCell id="Zst3fWVYxJrD-MXoVC2P-4" style="edgeStyle=none;shape=connector;rounded=0;orthogonalLoop=1;jettySize=auto;html=1;entryX=0;entryY=1;entryDx=0;entryDy=0;strokeColor=default;align=center;verticalAlign=middle;fontFamily=Helvetica;fontSize=11;fontColor=default;labelBackgroundColor=default;endArrow=none;startFill=0;" parent="1" source="FOkYjH_AzvrzRrDnmwD8-7" target="FOkYjH_AzvrzRrDnmwD8-1" edge="1">
                    <mxGeometry relative="1" as="geometry"/>
                </mxCell>
                <mxCell id="Zst3fWVYxJrD-MXoVC2P-5" style="edgeStyle=none;shape=connector;rounded=0;orthogonalLoop=1;jettySize=auto;html=1;entryX=0;entryY=0.5;entryDx=0;entryDy=0;strokeColor=default;align=center;verticalAlign=middle;fontFamily=Helvetica;fontSize=11;fontColor=default;labelBackgroundColor=default;startFill=0;endArrow=none;" parent="1" source="FOkYjH_AzvrzRrDnmwD8-7" target="FOkYjH_AzvrzRrDnmwD8-9" edge="1">
                    <mxGeometry relative="1" as="geometry"/>
                </mxCell>
                <mxCell id="FOkYjH_AzvrzRrDnmwD8-7" value="Team Members" style="shape=umlActor;verticalLabelPosition=bottom;verticalAlign=top;html=1;" parent="1" vertex="1">
                    <mxGeometry x="124" y="610" width="30" height="60" as="geometry"/>
                </mxCell>
                <mxCell id="Zst3fWVYxJrD-MXoVC2P-6" style="edgeStyle=none;shape=connector;rounded=0;orthogonalLoop=1;jettySize=auto;html=1;entryX=1;entryY=0.5;entryDx=0;entryDy=0;strokeColor=default;align=center;verticalAlign=middle;fontFamily=Helvetica;fontSize=11;fontColor=default;labelBackgroundColor=default;startFill=0;endArrow=none;" parent="1" source="FOkYjH_AzvrzRrDnmwD8-8" target="FOkYjH_AzvrzRrDnmwD8-1" edge="1">
                    <mxGeometry relative="1" as="geometry"/>
                </mxCell>
                <mxCell id="Zst3fWVYxJrD-MXoVC2P-7" style="edgeStyle=none;shape=connector;rounded=0;orthogonalLoop=1;jettySize=auto;html=1;entryX=1;entryY=0.5;entryDx=0;entryDy=0;strokeColor=default;align=center;verticalAlign=middle;fontFamily=Helvetica;fontSize=11;fontColor=default;labelBackgroundColor=default;startFill=0;endArrow=none;" parent="1" source="FOkYjH_AzvrzRrDnmwD8-8" target="FOkYjH_AzvrzRrDnmwD8-10" edge="1">
                    <mxGeometry relative="1" as="geometry"/>
                </mxCell>
                <mxCell id="Zst3fWVYxJrD-MXoVC2P-8" style="edgeStyle=none;shape=connector;rounded=0;orthogonalLoop=1;jettySize=auto;html=1;entryX=1;entryY=0.5;entryDx=0;entryDy=0;strokeColor=default;align=center;verticalAlign=middle;fontFamily=Helvetica;fontSize=11;fontColor=default;labelBackgroundColor=default;startFill=0;endArrow=none;" parent="1" source="FOkYjH_AzvrzRrDnmwD8-8" target="FOkYjH_AzvrzRrDnmwD8-9" edge="1">
                    <mxGeometry relative="1" as="geometry"/>
                </mxCell>
                <mxCell id="FOkYjH_AzvrzRrDnmwD8-8" value="Client" style="shape=umlActor;verticalLabelPosition=bottom;verticalAlign=top;html=1;" parent="1" vertex="1">
                    <mxGeometry x="767" y="441" width="30" height="60" as="geometry"/>
                </mxCell>
                <mxCell id="Zst3fWVYxJrD-MXoVC2P-13" value="" style="edgeStyle=none;shape=connector;rounded=0;orthogonalLoop=1;jettySize=auto;html=1;strokeColor=#b85450;align=center;verticalAlign=middle;fontFamily=Helvetica;fontSize=11;fontColor=default;labelBackgroundColor=default;startFill=1;endArrow=none;endFill=1;fillColor=#f8cecc;startArrow=classic;" parent="1" source="FOkYjH_AzvrzRrDnmwD8-9" target="FOkYjH_AzvrzRrDnmwD8-10" edge="1">
                    <mxGeometry relative="1" as="geometry"/>
                </mxCell>
                <mxCell id="Zst3fWVYxJrD-MXoVC2P-16" value="include" style="edgeLabel;html=1;align=center;verticalAlign=middle;resizable=0;points=[];fontFamily=Helvetica;fontSize=11;fontColor=default;labelBackgroundColor=default;" parent="Zst3fWVYxJrD-MXoVC2P-13" connectable="0" vertex="1">
                    <mxGeometry x="-0.0013" y="1" relative="1" as="geometry">
                        <mxPoint as="offset"/>
                    </mxGeometry>
                </mxCell>
                <mxCell id="FOkYjH_AzvrzRrDnmwD8-9" value="Manage Calendar" style="ellipse;whiteSpace=wrap;html=1;" parent="1" vertex="1">
                    <mxGeometry x="486" y="437" width="120" height="80" as="geometry"/>
                </mxCell>
                <mxCell id="FOkYjH_AzvrzRrDnmwD8-10" value="Manage Project" style="ellipse;whiteSpace=wrap;html=1;" parent="1" vertex="1">
                    <mxGeometry x="322" y="610" width="120" height="80" as="geometry"/>
                </mxCell>
                <mxCell id="Zst3fWVYxJrD-MXoVC2P-10" value="Projects/Tasks Management for Office Company" style="text;html=1;align=center;verticalAlign=middle;whiteSpace=wrap;rounded=0;fontFamily=Helvetica;fontSize=11;fontColor=default;labelBackgroundColor=default;" parent="1" vertex="1">
                    <mxGeometry x="268" y="207" width="344.53" height="38" as="geometry"/>
                </mxCell>
                <mxCell id="Zst3fWVYxJrD-MXoVC2P-11" style="edgeStyle=none;shape=connector;rounded=0;orthogonalLoop=1;jettySize=auto;html=1;entryX=0.032;entryY=0.344;entryDx=0;entryDy=0;entryPerimeter=0;strokeColor=default;align=center;verticalAlign=middle;fontFamily=Helvetica;fontSize=11;fontColor=default;labelBackgroundColor=default;startFill=0;endArrow=none;" parent="1" source="FOkYjH_AzvrzRrDnmwD8-7" target="FOkYjH_AzvrzRrDnmwD8-10" edge="1">
                    <mxGeometry relative="1" as="geometry"/>
                </mxCell>
                <mxCell id="Zst3fWVYxJrD-MXoVC2P-18" style="edgeStyle=none;shape=connector;rounded=0;orthogonalLoop=1;jettySize=auto;html=1;entryX=0.583;entryY=1.008;entryDx=0;entryDy=0;entryPerimeter=0;strokeColor=#b85450;align=center;verticalAlign=middle;fontFamily=Helvetica;fontSize=11;fontColor=default;labelBackgroundColor=default;startFill=0;endArrow=classic;fillColor=#f8cecc;endFill=1;" parent="1" source="FOkYjH_AzvrzRrDnmwD8-10" target="FOkYjH_AzvrzRrDnmwD8-1" edge="1">
                    <mxGeometry relative="1" as="geometry"/>
                </mxCell>
                <mxCell id="Zst3fWVYxJrD-MXoVC2P-19" value="include" style="edgeLabel;html=1;align=center;verticalAlign=middle;resizable=0;points=[];fontFamily=Helvetica;fontSize=11;fontColor=default;labelBackgroundColor=default;" parent="Zst3fWVYxJrD-MXoVC2P-18" connectable="0" vertex="1">
                    <mxGeometry x="-0.0053" y="-1" relative="1" as="geometry">
                        <mxPoint as="offset"/>
                    </mxGeometry>
                </mxCell>
            </root>
        </mxGraphModel>
    </diagram>
    <diagram id="LX1SHvKFr02mle4p7zjz" name="Class Diagram">
        <mxGraphModel dx="489" dy="571" grid="0" gridSize="10" guides="1" tooltips="1" connect="1" arrows="1" fold="1" page="0" pageScale="1" pageWidth="850" pageHeight="1100" math="0" shadow="0">
            <root>
                <mxCell id="0"/>
                <mxCell id="1" parent="0"/>
                <mxCell id="jyYXgW9yrYf-rZAXUQ_S-23" style="shape=connector;rounded=1;orthogonalLoop=1;jettySize=auto;html=1;exitX=0.5;exitY=1;exitDx=0;exitDy=0;entryX=0.528;entryY=0.013;entryDx=0;entryDy=0;strokeColor=default;align=center;verticalAlign=middle;fontFamily=Helvetica;fontSize=11;fontColor=default;labelBackgroundColor=default;endArrow=block;strokeWidth=3;entryPerimeter=0;endFill=0;" parent="1" target="oY_cb-PAJYQnFQbFR_PX-1" edge="1">
                    <mxGeometry relative="1" as="geometry">
                        <mxPoint x="1540" y="1002" as="sourcePoint"/>
                        <mxPoint x="1359" y="1222" as="targetPoint"/>
                    </mxGeometry>
                </mxCell>
                <mxCell id="jyYXgW9yrYf-rZAXUQ_S-27" value="&lt;font style=&quot;font-size: 16px;&quot;&gt;extends&lt;/font&gt;" style="edgeLabel;html=1;align=center;verticalAlign=middle;resizable=0;points=[];fontFamily=Helvetica;fontSize=11;fontColor=default;labelBackgroundColor=default;" parent="jyYXgW9yrYf-rZAXUQ_S-23" connectable="0" vertex="1">
                    <mxGeometry x="0.0588" y="1" relative="1" as="geometry">
                        <mxPoint as="offset"/>
                    </mxGeometry>
                </mxCell>
                <mxCell id="jyYXgW9yrYf-rZAXUQ_S-25" style="shape=connector;rounded=1;orthogonalLoop=1;jettySize=auto;html=1;exitX=0.5;exitY=1;exitDx=0;exitDy=0;entryX=0.5;entryY=0;entryDx=0;entryDy=0;strokeColor=default;align=center;verticalAlign=middle;fontFamily=Helvetica;fontSize=11;fontColor=default;labelBackgroundColor=default;endArrow=block;strokeWidth=3;endFill=0;" parent="1" source="44fCseGr7HNjQifV41mB-3" target="jyYXgW9yrYf-rZAXUQ_S-2" edge="1">
                    <mxGeometry relative="1" as="geometry"/>
                </mxCell>
                <mxCell id="jyYXgW9yrYf-rZAXUQ_S-28" value="&lt;font style=&quot;font-size: 16px;&quot;&gt;extends&lt;/font&gt;" style="edgeLabel;html=1;align=center;verticalAlign=middle;resizable=0;points=[];fontFamily=Helvetica;fontSize=11;fontColor=default;labelBackgroundColor=default;" parent="jyYXgW9yrYf-rZAXUQ_S-25" connectable="0" vertex="1">
                    <mxGeometry x="-0.0599" y="-3" relative="1" as="geometry">
                        <mxPoint as="offset"/>
                    </mxGeometry>
                </mxCell>
                <mxCell id="jyYXgW9yrYf-rZAXUQ_S-26" style="shape=connector;rounded=1;orthogonalLoop=1;jettySize=auto;html=1;exitX=0.5;exitY=1;exitDx=0;exitDy=0;entryX=0.5;entryY=0;entryDx=0;entryDy=0;strokeColor=default;align=center;verticalAlign=middle;fontFamily=Helvetica;fontSize=11;fontColor=default;labelBackgroundColor=default;endArrow=block;strokeWidth=3;endFill=0;" parent="1" source="44fCseGr7HNjQifV41mB-3" target="oY_cb-PAJYQnFQbFR_PX-5" edge="1">
                    <mxGeometry relative="1" as="geometry"/>
                </mxCell>
                <mxCell id="jyYXgW9yrYf-rZAXUQ_S-29" value="&lt;font style=&quot;font-size: 16px;&quot;&gt;extends&lt;/font&gt;" style="edgeLabel;html=1;align=center;verticalAlign=middle;resizable=0;points=[];fontFamily=Helvetica;fontSize=11;fontColor=default;labelBackgroundColor=default;" parent="jyYXgW9yrYf-rZAXUQ_S-26" connectable="0" vertex="1">
                    <mxGeometry x="0.0314" y="-3" relative="1" as="geometry">
                        <mxPoint as="offset"/>
                    </mxGeometry>
                </mxCell>
                <mxCell id="44fCseGr7HNjQifV41mB-3" value="User" style="swimlane;fontStyle=1;align=center;verticalAlign=top;childLayout=stackLayout;horizontal=1;startSize=26;horizontalStack=0;resizeParent=1;resizeParentMax=0;resizeLast=0;collapsible=1;marginBottom=0;whiteSpace=wrap;html=1;fontSize=16;" parent="1" vertex="1">
                    <mxGeometry x="1446" y="708" width="190" height="294" as="geometry"/>
                </mxCell>
                <mxCell id="44fCseGr7HNjQifV41mB-4" value="- userId: string" style="text;strokeColor=none;fillColor=none;align=left;verticalAlign=top;spacingLeft=4;spacingRight=4;overflow=hidden;rotatable=0;points=[[0,0.5],[1,0.5]];portConstraint=eastwest;whiteSpace=wrap;html=1;fontSize=16;" parent="44fCseGr7HNjQifV41mB-3" vertex="1">
                    <mxGeometry y="26" width="190" height="26" as="geometry"/>
                </mxCell>
                <mxCell id="44fCseGr7HNjQifV41mB-5" value="- name: string&lt;div&gt;&lt;br&gt;&lt;/div&gt;" style="text;strokeColor=none;fillColor=none;align=left;verticalAlign=top;spacingLeft=4;spacingRight=4;overflow=hidden;rotatable=0;points=[[0,0.5],[1,0.5]];portConstraint=eastwest;whiteSpace=wrap;html=1;fontSize=16;" parent="44fCseGr7HNjQifV41mB-3" vertex="1">
                    <mxGeometry y="52" width="190" height="26" as="geometry"/>
                </mxCell>
                <mxCell id="44fCseGr7HNjQifV41mB-6" value="- passwordHash: string" style="text;strokeColor=none;fillColor=none;align=left;verticalAlign=top;spacingLeft=4;spacingRight=4;overflow=hidden;rotatable=0;points=[[0,0.5],[1,0.5]];portConstraint=eastwest;whiteSpace=wrap;html=1;fontSize=16;" parent="44fCseGr7HNjQifV41mB-3" vertex="1">
                    <mxGeometry y="78" width="190" height="26" as="geometry"/>
                </mxCell>
                <mxCell id="44fCseGr7HNjQifV41mB-7" value="- email: string" style="text;strokeColor=none;fillColor=none;align=left;verticalAlign=top;spacingLeft=4;spacingRight=4;overflow=hidden;rotatable=0;points=[[0,0.5],[1,0.5]];portConstraint=eastwest;whiteSpace=wrap;html=1;fontSize=16;" parent="44fCseGr7HNjQifV41mB-3" vertex="1">
                    <mxGeometry y="104" width="190" height="26" as="geometry"/>
                </mxCell>
                <mxCell id="jyYXgW9yrYf-rZAXUQ_S-1" value="- role: List&amp;lt;String&amp;gt;" style="text;strokeColor=none;fillColor=none;align=left;verticalAlign=top;spacingLeft=4;spacingRight=4;overflow=hidden;rotatable=0;points=[[0,0.5],[1,0.5]];portConstraint=eastwest;whiteSpace=wrap;html=1;fontSize=16;" parent="44fCseGr7HNjQifV41mB-3" vertex="1">
                    <mxGeometry y="130" width="190" height="26" as="geometry"/>
                </mxCell>
                <mxCell id="44fCseGr7HNjQifV41mB-8" value="- status: UserStatus" style="text;strokeColor=none;fillColor=none;align=left;verticalAlign=top;spacingLeft=4;spacingRight=4;overflow=hidden;rotatable=0;points=[[0,0.5],[1,0.5]];portConstraint=eastwest;whiteSpace=wrap;html=1;fontSize=16;" parent="44fCseGr7HNjQifV41mB-3" vertex="1">
                    <mxGeometry y="156" width="190" height="26" as="geometry"/>
                </mxCell>
                <mxCell id="EGotV0f6ZkKKSIbF34np-1" value="" style="line;strokeWidth=1;fillColor=none;align=left;verticalAlign=middle;spacingTop=-1;spacingLeft=3;spacingRight=3;rotatable=0;labelPosition=right;points=[];portConstraint=eastwest;strokeColor=inherit;fontSize=16;" parent="44fCseGr7HNjQifV41mB-3" vertex="1">
                    <mxGeometry y="182" width="190" height="8" as="geometry"/>
                </mxCell>
                <mxCell id="EGotV0f6ZkKKSIbF34np-3" value="+ login()" style="text;strokeColor=none;fillColor=none;align=left;verticalAlign=top;spacingLeft=4;spacingRight=4;overflow=hidden;rotatable=0;points=[[0,0.5],[1,0.5]];portConstraint=eastwest;whiteSpace=wrap;html=1;fontSize=16;" parent="44fCseGr7HNjQifV41mB-3" vertex="1">
                    <mxGeometry y="190" width="190" height="26" as="geometry"/>
                </mxCell>
                <mxCell id="EGotV0f6ZkKKSIbF34np-2" value="+ logout()" style="text;strokeColor=none;fillColor=none;align=left;verticalAlign=top;spacingLeft=4;spacingRight=4;overflow=hidden;rotatable=0;points=[[0,0.5],[1,0.5]];portConstraint=eastwest;whiteSpace=wrap;html=1;fontSize=16;" parent="44fCseGr7HNjQifV41mB-3" vertex="1">
                    <mxGeometry y="216" width="190" height="26" as="geometry"/>
                </mxCell>
                <mxCell id="jyYXgW9yrYf-rZAXUQ_S-7" value="+ updateProfileDetails()" style="text;strokeColor=none;fillColor=none;align=left;verticalAlign=top;spacingLeft=4;spacingRight=4;overflow=hidden;rotatable=0;points=[[0,0.5],[1,0.5]];portConstraint=eastwest;whiteSpace=wrap;html=1;fontSize=16;" parent="44fCseGr7HNjQifV41mB-3" vertex="1">
                    <mxGeometry y="242" width="190" height="26" as="geometry"/>
                </mxCell>
                <mxCell id="jyYXgW9yrYf-rZAXUQ_S-8" value="+ changePassword()" style="text;strokeColor=none;fillColor=none;align=left;verticalAlign=top;spacingLeft=4;spacingRight=4;overflow=hidden;rotatable=0;points=[[0,0.5],[1,0.5]];portConstraint=eastwest;whiteSpace=wrap;html=1;fontSize=16;" parent="44fCseGr7HNjQifV41mB-3" vertex="1">
                    <mxGeometry y="268" width="190" height="26" as="geometry"/>
                </mxCell>
                <mxCell id="44fCseGr7HNjQifV41mB-9" value="&lt;i&gt;&amp;lt;&amp;lt;Enums&amp;gt;&amp;gt;&lt;/i&gt;&lt;div&gt;&lt;b&gt;UserStatus&lt;/b&gt;&lt;/div&gt;" style="swimlane;fontStyle=0;childLayout=stackLayout;horizontal=1;startSize=38;fillColor=none;horizontalStack=0;resizeParent=1;resizeParentMax=0;resizeLast=0;collapsible=1;marginBottom=0;whiteSpace=wrap;html=1;fontSize=16;" parent="1" vertex="1">
                    <mxGeometry x="1732" y="891" width="140" height="116" as="geometry"/>
                </mxCell>
                <mxCell id="44fCseGr7HNjQifV41mB-10" value="Online" style="text;strokeColor=none;fillColor=none;align=left;verticalAlign=top;spacingLeft=4;spacingRight=4;overflow=hidden;rotatable=0;points=[[0,0.5],[1,0.5]];portConstraint=eastwest;whiteSpace=wrap;html=1;fontSize=16;" parent="44fCseGr7HNjQifV41mB-9" vertex="1">
                    <mxGeometry y="38" width="140" height="26" as="geometry"/>
                </mxCell>
                <mxCell id="44fCseGr7HNjQifV41mB-11" value="Offline" style="text;strokeColor=none;fillColor=none;align=left;verticalAlign=top;spacingLeft=4;spacingRight=4;overflow=hidden;rotatable=0;points=[[0,0.5],[1,0.5]];portConstraint=eastwest;whiteSpace=wrap;html=1;fontSize=16;" parent="44fCseGr7HNjQifV41mB-9" vertex="1">
                    <mxGeometry y="64" width="140" height="26" as="geometry"/>
                </mxCell>
                <mxCell id="44fCseGr7HNjQifV41mB-12" value="Idle" style="text;strokeColor=none;fillColor=none;align=left;verticalAlign=top;spacingLeft=4;spacingRight=4;overflow=hidden;rotatable=0;points=[[0,0.5],[1,0.5]];portConstraint=eastwest;whiteSpace=wrap;html=1;fontSize=16;" parent="44fCseGr7HNjQifV41mB-9" vertex="1">
                    <mxGeometry y="90" width="140" height="26" as="geometry"/>
                </mxCell>
                <mxCell id="44fCseGr7HNjQifV41mB-15" value="Task" style="swimlane;fontStyle=1;childLayout=stackLayout;horizontal=1;startSize=26;fillColor=none;horizontalStack=0;resizeParent=1;resizeParentMax=0;resizeLast=0;collapsible=1;marginBottom=0;whiteSpace=wrap;html=1;fontSize=16;" parent="1" vertex="1">
                    <mxGeometry x="896" y="1012" width="171" height="390" as="geometry"/>
                </mxCell>
                <mxCell id="44fCseGr7HNjQifV41mB-16" value="- taskId: string" style="text;strokeColor=none;fillColor=none;align=left;verticalAlign=top;spacingLeft=4;spacingRight=4;overflow=hidden;rotatable=0;points=[[0,0.5],[1,0.5]];portConstraint=eastwest;whiteSpace=wrap;html=1;fontSize=16;" parent="44fCseGr7HNjQifV41mB-15" vertex="1">
                    <mxGeometry y="26" width="171" height="26" as="geometry"/>
                </mxCell>
                <mxCell id="44fCseGr7HNjQifV41mB-17" value="- taskName: string" style="text;strokeColor=none;fillColor=none;align=left;verticalAlign=top;spacingLeft=4;spacingRight=4;overflow=hidden;rotatable=0;points=[[0,0.5],[1,0.5]];portConstraint=eastwest;whiteSpace=wrap;html=1;fontSize=16;" parent="44fCseGr7HNjQifV41mB-15" vertex="1">
                    <mxGeometry y="52" width="171" height="26" as="geometry"/>
                </mxCell>
                <mxCell id="44fCseGr7HNjQifV41mB-18" value="- taskType: string" style="text;strokeColor=none;fillColor=none;align=left;verticalAlign=top;spacingLeft=4;spacingRight=4;overflow=hidden;rotatable=0;points=[[0,0.5],[1,0.5]];portConstraint=eastwest;whiteSpace=wrap;html=1;fontSize=16;" parent="44fCseGr7HNjQifV41mB-15" vertex="1">
                    <mxGeometry y="78" width="171" height="26" as="geometry"/>
                </mxCell>
                <mxCell id="44fCseGr7HNjQifV41mB-19" value="- description: string" style="text;strokeColor=none;fillColor=none;align=left;verticalAlign=top;spacingLeft=4;spacingRight=4;overflow=hidden;rotatable=0;points=[[0,0.5],[1,0.5]];portConstraint=eastwest;whiteSpace=wrap;html=1;fontSize=16;" parent="44fCseGr7HNjQifV41mB-15" vertex="1">
                    <mxGeometry y="104" width="171" height="26" as="geometry"/>
                </mxCell>
                <mxCell id="44fCseGr7HNjQifV41mB-20" value="- taskStatus: TaskStatus" style="text;strokeColor=none;fillColor=none;align=left;verticalAlign=top;spacingLeft=4;spacingRight=4;overflow=hidden;rotatable=0;points=[[0,0.5],[1,0.5]];portConstraint=eastwest;whiteSpace=wrap;html=1;fontSize=16;" parent="44fCseGr7HNjQifV41mB-15" vertex="1">
                    <mxGeometry y="130" width="171" height="26" as="geometry"/>
                </mxCell>
                <mxCell id="44fCseGr7HNjQifV41mB-21" value="- estimatedTime: int" style="text;strokeColor=none;fillColor=none;align=left;verticalAlign=top;spacingLeft=4;spacingRight=4;overflow=hidden;rotatable=0;points=[[0,0.5],[1,0.5]];portConstraint=eastwest;whiteSpace=wrap;html=1;fontSize=16;" parent="44fCseGr7HNjQifV41mB-15" vertex="1">
                    <mxGeometry y="156" width="171" height="26" as="geometry"/>
                </mxCell>
                <mxCell id="44fCseGr7HNjQifV41mB-22" value="- priority: int" style="text;strokeColor=none;fillColor=none;align=left;verticalAlign=top;spacingLeft=4;spacingRight=4;overflow=hidden;rotatable=0;points=[[0,0.5],[1,0.5]];portConstraint=eastwest;whiteSpace=wrap;html=1;fontSize=16;" parent="44fCseGr7HNjQifV41mB-15" vertex="1">
                    <mxGeometry y="182" width="171" height="26" as="geometry"/>
                </mxCell>
                <mxCell id="44fCseGr7HNjQifV41mB-23" value="- isRecurring: boolean" style="text;strokeColor=none;fillColor=none;align=left;verticalAlign=top;spacingLeft=4;spacingRight=4;overflow=hidden;rotatable=0;points=[[0,0.5],[1,0.5]];portConstraint=eastwest;whiteSpace=wrap;html=1;fontSize=16;" parent="44fCseGr7HNjQifV41mB-15" vertex="1">
                    <mxGeometry y="208" width="171" height="26" as="geometry"/>
                </mxCell>
                <mxCell id="44fCseGr7HNjQifV41mB-24" value="- recurrencePattern: string" style="text;strokeColor=none;fillColor=none;align=left;verticalAlign=top;spacingLeft=4;spacingRight=4;overflow=hidden;rotatable=0;points=[[0,0.5],[1,0.5]];portConstraint=eastwest;whiteSpace=wrap;html=1;fontSize=16;" parent="44fCseGr7HNjQifV41mB-15" vertex="1">
                    <mxGeometry y="234" width="171" height="26" as="geometry"/>
                </mxCell>
                <mxCell id="44fCseGr7HNjQifV41mB-25" value="- category: string" style="text;strokeColor=none;fillColor=none;align=left;verticalAlign=top;spacingLeft=4;spacingRight=4;overflow=hidden;rotatable=0;points=[[0,0.5],[1,0.5]];portConstraint=eastwest;whiteSpace=wrap;html=1;fontSize=16;" parent="44fCseGr7HNjQifV41mB-15" vertex="1">
                    <mxGeometry y="260" width="171" height="26" as="geometry"/>
                </mxCell>
                <mxCell id="44fCseGr7HNjQifV41mB-26" value="- createAt: datetime" style="text;strokeColor=none;fillColor=none;align=left;verticalAlign=top;spacingLeft=4;spacingRight=4;overflow=hidden;rotatable=0;points=[[0,0.5],[1,0.5]];portConstraint=eastwest;whiteSpace=wrap;html=1;fontSize=16;" parent="44fCseGr7HNjQifV41mB-15" vertex="1">
                    <mxGeometry y="286" width="171" height="26" as="geometry"/>
                </mxCell>
                <mxCell id="44fCseGr7HNjQifV41mB-27" value="- startDate: datetime" style="text;strokeColor=none;fillColor=none;align=left;verticalAlign=top;spacingLeft=4;spacingRight=4;overflow=hidden;rotatable=0;points=[[0,0.5],[1,0.5]];portConstraint=eastwest;whiteSpace=wrap;html=1;fontSize=16;" parent="44fCseGr7HNjQifV41mB-15" vertex="1">
                    <mxGeometry y="312" width="171" height="26" as="geometry"/>
                </mxCell>
                <mxCell id="44fCseGr7HNjQifV41mB-28" value="- endDate: datetime" style="text;strokeColor=none;fillColor=none;align=left;verticalAlign=top;spacingLeft=4;spacingRight=4;overflow=hidden;rotatable=0;points=[[0,0.5],[1,0.5]];portConstraint=eastwest;whiteSpace=wrap;html=1;fontSize=16;" parent="44fCseGr7HNjQifV41mB-15" vertex="1">
                    <mxGeometry y="338" width="171" height="26" as="geometry"/>
                </mxCell>
                <mxCell id="44fCseGr7HNjQifV41mB-29" value="- projectId: string" style="text;strokeColor=none;fillColor=none;align=left;verticalAlign=top;spacingLeft=4;spacingRight=4;overflow=hidden;rotatable=0;points=[[0,0.5],[1,0.5]];portConstraint=eastwest;whiteSpace=wrap;html=1;fontSize=16;" parent="44fCseGr7HNjQifV41mB-15" vertex="1">
                    <mxGeometry y="364" width="171" height="26" as="geometry"/>
                </mxCell>
                <mxCell id="44fCseGr7HNjQifV41mB-32" value="&lt;div&gt;&lt;i style=&quot;font-weight: normal;&quot;&gt;&amp;lt;&amp;lt;Enums&amp;gt;&amp;gt;&lt;/i&gt;&lt;/div&gt;TaskStatus" style="swimlane;fontStyle=1;childLayout=stackLayout;horizontal=1;startSize=38;horizontalStack=0;resizeParent=1;resizeParentMax=0;resizeLast=0;collapsible=1;marginBottom=0;whiteSpace=wrap;html=1;fontSize=16;" parent="1" vertex="1">
                    <mxGeometry x="694" y="1225" width="157" height="128" as="geometry"/>
                </mxCell>
                <mxCell id="44fCseGr7HNjQifV41mB-33" value="- Not Started" style="text;strokeColor=none;fillColor=none;align=left;verticalAlign=middle;spacingLeft=4;spacingRight=4;overflow=hidden;points=[[0,0.5],[1,0.5]];portConstraint=eastwest;rotatable=0;whiteSpace=wrap;html=1;fontSize=16;" parent="44fCseGr7HNjQifV41mB-32" vertex="1">
                    <mxGeometry y="38" width="157" height="30" as="geometry"/>
                </mxCell>
                <mxCell id="44fCseGr7HNjQifV41mB-34" value="- In Progress" style="text;strokeColor=none;fillColor=none;align=left;verticalAlign=middle;spacingLeft=4;spacingRight=4;overflow=hidden;points=[[0,0.5],[1,0.5]];portConstraint=eastwest;rotatable=0;whiteSpace=wrap;html=1;fontSize=16;" parent="44fCseGr7HNjQifV41mB-32" vertex="1">
                    <mxGeometry y="68" width="157" height="30" as="geometry"/>
                </mxCell>
                <mxCell id="44fCseGr7HNjQifV41mB-35" value="- Completed" style="text;strokeColor=none;fillColor=none;align=left;verticalAlign=middle;spacingLeft=4;spacingRight=4;overflow=hidden;points=[[0,0.5],[1,0.5]];portConstraint=eastwest;rotatable=0;whiteSpace=wrap;html=1;fontSize=16;" parent="44fCseGr7HNjQifV41mB-32" vertex="1">
                    <mxGeometry y="98" width="157" height="30" as="geometry"/>
                </mxCell>
                <mxCell id="44fCseGr7HNjQifV41mB-36" style="edgeStyle=orthogonalEdgeStyle;rounded=1;orthogonalLoop=1;jettySize=auto;html=1;entryX=0.5;entryY=0;entryDx=0;entryDy=0;endArrow=ERone;endFill=0;startArrow=ERone;startFill=0;fontSize=16;curved=0;strokeWidth=3;strokeColor=default;align=center;verticalAlign=middle;fontFamily=Helvetica;fontColor=default;labelBackgroundColor=default;startSize=12;endSize=12;" parent="1" source="44fCseGr7HNjQifV41mB-20" target="44fCseGr7HNjQifV41mB-32" edge="1">
                    <mxGeometry relative="1" as="geometry"/>
                </mxCell>
                <mxCell id="44fCseGr7HNjQifV41mB-37" value="has" style="edgeLabel;html=1;align=center;verticalAlign=middle;resizable=0;points=[];fontSize=16;rounded=1;strokeColor=default;strokeWidth=3;fontFamily=Helvetica;fontColor=default;labelBackgroundColor=default;" parent="44fCseGr7HNjQifV41mB-36" connectable="0" vertex="1">
                    <mxGeometry x="-0.1553" y="-2" relative="1" as="geometry">
                        <mxPoint as="offset"/>
                    </mxGeometry>
                </mxCell>
                <mxCell id="44fCseGr7HNjQifV41mB-40" value="Calendar" style="swimlane;fontStyle=1;childLayout=stackLayout;horizontal=1;startSize=26;fillColor=none;horizontalStack=0;resizeParent=1;resizeParentMax=0;resizeLast=0;collapsible=1;marginBottom=0;whiteSpace=wrap;html=1;fontSize=16;" parent="1" vertex="1">
                    <mxGeometry x="231" y="961" width="186" height="156" as="geometry"/>
                </mxCell>
                <mxCell id="44fCseGr7HNjQifV41mB-41" value="&lt;span style=&quot;white-space-collapse: preserve;&quot;&gt;- startDate: datetime&lt;/span&gt;" style="text;strokeColor=none;fillColor=none;align=left;verticalAlign=top;spacingLeft=4;spacingRight=4;overflow=hidden;rotatable=0;points=[[0,0.5],[1,0.5]];portConstraint=eastwest;whiteSpace=wrap;html=1;fontSize=16;" parent="44fCseGr7HNjQifV41mB-40" vertex="1">
                    <mxGeometry y="26" width="186" height="26" as="geometry"/>
                </mxCell>
                <mxCell id="44fCseGr7HNjQifV41mB-42" value="- endDate: datetime" style="text;strokeColor=none;fillColor=none;align=left;verticalAlign=top;spacingLeft=4;spacingRight=4;overflow=hidden;rotatable=0;points=[[0,0.5],[1,0.5]];portConstraint=eastwest;whiteSpace=wrap;html=1;fontSize=16;" parent="44fCseGr7HNjQifV41mB-40" vertex="1">
                    <mxGeometry y="52" width="186" height="26" as="geometry"/>
                </mxCell>
                <mxCell id="44fCseGr7HNjQifV41mB-43" value="- isShared: boolean" style="text;strokeColor=none;fillColor=none;align=left;verticalAlign=top;spacingLeft=4;spacingRight=4;overflow=hidden;rotatable=0;points=[[0,0.5],[1,0.5]];portConstraint=eastwest;whiteSpace=wrap;html=1;fontSize=16;" parent="44fCseGr7HNjQifV41mB-40" vertex="1">
                    <mxGeometry y="78" width="186" height="26" as="geometry"/>
                </mxCell>
                <mxCell id="44fCseGr7HNjQifV41mB-44" value="- isPermission: boolean" style="text;strokeColor=none;fillColor=none;align=left;verticalAlign=top;spacingLeft=4;spacingRight=4;overflow=hidden;rotatable=0;points=[[0,0.5],[1,0.5]];portConstraint=eastwest;whiteSpace=wrap;html=1;fontSize=16;" parent="44fCseGr7HNjQifV41mB-40" vertex="1">
                    <mxGeometry y="104" width="186" height="26" as="geometry"/>
                </mxCell>
                <mxCell id="44fCseGr7HNjQifV41mB-45" value="- colorCode: string" style="text;strokeColor=none;fillColor=none;align=left;verticalAlign=top;spacingLeft=4;spacingRight=4;overflow=hidden;rotatable=0;points=[[0,0.5],[1,0.5]];portConstraint=eastwest;whiteSpace=wrap;html=1;fontSize=16;" parent="44fCseGr7HNjQifV41mB-40" vertex="1">
                    <mxGeometry y="130" width="186" height="26" as="geometry"/>
                </mxCell>
                <mxCell id="44fCseGr7HNjQifV41mB-47" value="&lt;div&gt;&lt;i&gt;&amp;lt;&amp;lt;Enums&amp;gt;&amp;gt;&lt;/i&gt;&lt;/div&gt;&lt;b&gt;Views&lt;/b&gt;" style="swimlane;fontStyle=0;childLayout=stackLayout;horizontal=1;startSize=40;horizontalStack=0;resizeParent=1;resizeParentMax=0;resizeLast=0;collapsible=1;marginBottom=0;whiteSpace=wrap;html=1;fontSize=16;" parent="1" vertex="1">
                    <mxGeometry x="521" y="1104" width="140" height="156" as="geometry"/>
                </mxCell>
                <mxCell id="44fCseGr7HNjQifV41mB-48" value="Daily" style="text;strokeColor=none;fillColor=none;align=left;verticalAlign=middle;spacingLeft=4;spacingRight=4;overflow=hidden;points=[[0,0.5],[1,0.5]];portConstraint=eastwest;rotatable=0;whiteSpace=wrap;html=1;fontSize=16;" parent="44fCseGr7HNjQifV41mB-47" vertex="1">
                    <mxGeometry y="40" width="140" height="30" as="geometry"/>
                </mxCell>
                <mxCell id="44fCseGr7HNjQifV41mB-49" value="Weekly" style="text;strokeColor=none;fillColor=none;align=left;verticalAlign=middle;spacingLeft=4;spacingRight=4;overflow=hidden;points=[[0,0.5],[1,0.5]];portConstraint=eastwest;rotatable=0;whiteSpace=wrap;html=1;fontSize=16;" parent="44fCseGr7HNjQifV41mB-47" vertex="1">
                    <mxGeometry y="70" width="140" height="30" as="geometry"/>
                </mxCell>
                <mxCell id="44fCseGr7HNjQifV41mB-50" value="Monthly" style="text;strokeColor=none;fillColor=none;align=left;verticalAlign=middle;spacingLeft=4;spacingRight=4;overflow=hidden;points=[[0,0.5],[1,0.5]];portConstraint=eastwest;rotatable=0;whiteSpace=wrap;html=1;fontSize=16;" parent="44fCseGr7HNjQifV41mB-47" vertex="1">
                    <mxGeometry y="100" width="140" height="30" as="geometry"/>
                </mxCell>
                <mxCell id="44fCseGr7HNjQifV41mB-51" value="Agenda" style="text;strokeColor=none;fillColor=none;align=left;verticalAlign=top;spacingLeft=4;spacingRight=4;overflow=hidden;rotatable=0;points=[[0,0.5],[1,0.5]];portConstraint=eastwest;whiteSpace=wrap;html=1;fontSize=16;" parent="44fCseGr7HNjQifV41mB-47" vertex="1">
                    <mxGeometry y="130" width="140" height="26" as="geometry"/>
                </mxCell>
                <mxCell id="44fCseGr7HNjQifV41mB-52" style="edgeStyle=orthogonalEdgeStyle;rounded=1;orthogonalLoop=1;jettySize=auto;html=1;entryX=0.5;entryY=0;entryDx=0;entryDy=0;endArrow=ERone;endFill=0;startArrow=ERmany;startFill=0;fontSize=16;strokeColor=default;strokeWidth=3;align=center;verticalAlign=middle;fontFamily=Helvetica;fontColor=default;labelBackgroundColor=default;startSize=12;endSize=12;curved=0;" parent="1" source="44fCseGr7HNjQifV41mB-42" target="44fCseGr7HNjQifV41mB-47" edge="1">
                    <mxGeometry relative="1" as="geometry"/>
                </mxCell>
                <mxCell id="44fCseGr7HNjQifV41mB-53" value="has" style="edgeLabel;html=1;align=center;verticalAlign=middle;resizable=0;points=[];fontSize=16;rounded=1;strokeColor=default;strokeWidth=3;fontFamily=Helvetica;fontColor=default;labelBackgroundColor=default;" parent="44fCseGr7HNjQifV41mB-52" connectable="0" vertex="1">
                    <mxGeometry x="0.1187" relative="1" as="geometry">
                        <mxPoint as="offset"/>
                    </mxGeometry>
                </mxCell>
                <mxCell id="44fCseGr7HNjQifV41mB-55" value="&lt;b&gt;Project&lt;/b&gt;" style="swimlane;fontStyle=0;childLayout=stackLayout;horizontal=1;startSize=26;fillColor=none;horizontalStack=0;resizeParent=1;resizeParentMax=0;resizeLast=0;collapsible=1;marginBottom=0;whiteSpace=wrap;html=1;fontSize=16;" parent="1" vertex="1">
                    <mxGeometry x="1046" y="484" width="140" height="234" as="geometry"/>
                </mxCell>
                <mxCell id="44fCseGr7HNjQifV41mB-56" value="- projectId: string" style="text;strokeColor=none;fillColor=none;align=left;verticalAlign=top;spacingLeft=4;spacingRight=4;overflow=hidden;rotatable=0;points=[[0,0.5],[1,0.5]];portConstraint=eastwest;whiteSpace=wrap;html=1;fontSize=16;" parent="44fCseGr7HNjQifV41mB-55" vertex="1">
                    <mxGeometry y="26" width="140" height="26" as="geometry"/>
                </mxCell>
                <mxCell id="44fCseGr7HNjQifV41mB-57" value="- name: string" style="text;strokeColor=none;fillColor=none;align=left;verticalAlign=top;spacingLeft=4;spacingRight=4;overflow=hidden;rotatable=0;points=[[0,0.5],[1,0.5]];portConstraint=eastwest;whiteSpace=wrap;html=1;fontSize=16;" parent="44fCseGr7HNjQifV41mB-55" vertex="1">
                    <mxGeometry y="52" width="140" height="26" as="geometry"/>
                </mxCell>
                <mxCell id="44fCseGr7HNjQifV41mB-58" value="- description: string" style="text;strokeColor=none;fillColor=none;align=left;verticalAlign=top;spacingLeft=4;spacingRight=4;overflow=hidden;rotatable=0;points=[[0,0.5],[1,0.5]];portConstraint=eastwest;whiteSpace=wrap;html=1;fontSize=16;" parent="44fCseGr7HNjQifV41mB-55" vertex="1">
                    <mxGeometry y="78" width="140" height="26" as="geometry"/>
                </mxCell>
                <mxCell id="44fCseGr7HNjQifV41mB-59" value="- startDate: datetime" style="text;strokeColor=none;fillColor=none;align=left;verticalAlign=top;spacingLeft=4;spacingRight=4;overflow=hidden;rotatable=0;points=[[0,0.5],[1,0.5]];portConstraint=eastwest;whiteSpace=wrap;html=1;fontSize=16;" parent="44fCseGr7HNjQifV41mB-55" vertex="1">
                    <mxGeometry y="104" width="140" height="26" as="geometry"/>
                </mxCell>
                <mxCell id="44fCseGr7HNjQifV41mB-60" value="- endDate: datetime" style="text;strokeColor=none;fillColor=none;align=left;verticalAlign=top;spacingLeft=4;spacingRight=4;overflow=hidden;rotatable=0;points=[[0,0.5],[1,0.5]];portConstraint=eastwest;whiteSpace=wrap;html=1;fontSize=16;" parent="44fCseGr7HNjQifV41mB-55" vertex="1">
                    <mxGeometry y="130" width="140" height="26" as="geometry"/>
                </mxCell>
                <mxCell id="44fCseGr7HNjQifV41mB-61" value="- status: ProjectStatus" style="text;strokeColor=none;fillColor=none;align=left;verticalAlign=top;spacingLeft=4;spacingRight=4;overflow=hidden;rotatable=0;points=[[0,0.5],[1,0.5]];portConstraint=eastwest;whiteSpace=wrap;html=1;fontSize=16;" parent="44fCseGr7HNjQifV41mB-55" vertex="1">
                    <mxGeometry y="156" width="140" height="26" as="geometry"/>
                </mxCell>
                <mxCell id="44fCseGr7HNjQifV41mB-62" value="- progress: float" style="text;strokeColor=none;fillColor=none;align=left;verticalAlign=top;spacingLeft=4;spacingRight=4;overflow=hidden;rotatable=0;points=[[0,0.5],[1,0.5]];portConstraint=eastwest;whiteSpace=wrap;html=1;fontSize=16;" parent="44fCseGr7HNjQifV41mB-55" vertex="1">
                    <mxGeometry y="182" width="140" height="26" as="geometry"/>
                </mxCell>
                <mxCell id="44fCseGr7HNjQifV41mB-63" value="- budget: decimal" style="text;strokeColor=none;fillColor=none;align=left;verticalAlign=top;spacingLeft=4;spacingRight=4;overflow=hidden;rotatable=0;points=[[0,0.5],[1,0.5]];portConstraint=eastwest;whiteSpace=wrap;html=1;fontSize=16;" parent="44fCseGr7HNjQifV41mB-55" vertex="1">
                    <mxGeometry y="208" width="140" height="26" as="geometry"/>
                </mxCell>
                <mxCell id="44fCseGr7HNjQifV41mB-64" value="&lt;i&gt;&amp;lt;&amp;lt;Enums&amp;gt;&amp;gt;&lt;/i&gt;&lt;div&gt;&lt;b&gt;ProjectStatus&lt;/b&gt;&lt;/div&gt;" style="swimlane;fontStyle=0;childLayout=stackLayout;horizontal=1;startSize=44;fillColor=none;horizontalStack=0;resizeParent=1;resizeParentMax=0;resizeLast=0;collapsible=1;marginBottom=0;whiteSpace=wrap;html=1;fontSize=16;" parent="1" vertex="1">
                    <mxGeometry x="698" y="767" width="140" height="148" as="geometry"/>
                </mxCell>
                <mxCell id="44fCseGr7HNjQifV41mB-65" value="Planning" style="text;strokeColor=none;fillColor=none;align=left;verticalAlign=top;spacingLeft=4;spacingRight=4;overflow=hidden;rotatable=0;points=[[0,0.5],[1,0.5]];portConstraint=eastwest;whiteSpace=wrap;html=1;fontSize=16;" parent="44fCseGr7HNjQifV41mB-64" vertex="1">
                    <mxGeometry y="44" width="140" height="26" as="geometry"/>
                </mxCell>
                <mxCell id="44fCseGr7HNjQifV41mB-66" value="In Progress" style="text;strokeColor=none;fillColor=none;align=left;verticalAlign=top;spacingLeft=4;spacingRight=4;overflow=hidden;rotatable=0;points=[[0,0.5],[1,0.5]];portConstraint=eastwest;whiteSpace=wrap;html=1;fontSize=16;" parent="44fCseGr7HNjQifV41mB-64" vertex="1">
                    <mxGeometry y="70" width="140" height="26" as="geometry"/>
                </mxCell>
                <mxCell id="44fCseGr7HNjQifV41mB-67" value="Completed" style="text;strokeColor=none;fillColor=none;align=left;verticalAlign=top;spacingLeft=4;spacingRight=4;overflow=hidden;rotatable=0;points=[[0,0.5],[1,0.5]];portConstraint=eastwest;whiteSpace=wrap;html=1;fontSize=16;" parent="44fCseGr7HNjQifV41mB-64" vertex="1">
                    <mxGeometry y="96" width="140" height="26" as="geometry"/>
                </mxCell>
                <mxCell id="44fCseGr7HNjQifV41mB-68" value="Canceled" style="text;strokeColor=none;fillColor=none;align=left;verticalAlign=top;spacingLeft=4;spacingRight=4;overflow=hidden;rotatable=0;points=[[0,0.5],[1,0.5]];portConstraint=eastwest;whiteSpace=wrap;html=1;fontSize=16;" parent="44fCseGr7HNjQifV41mB-64" vertex="1">
                    <mxGeometry y="122" width="140" height="26" as="geometry"/>
                </mxCell>
                <mxCell id="44fCseGr7HNjQifV41mB-69" style="edgeStyle=orthogonalEdgeStyle;rounded=1;orthogonalLoop=1;jettySize=auto;html=1;entryX=1.001;entryY=0.088;entryDx=0;entryDy=0;entryPerimeter=0;fontSize=16;strokeColor=default;strokeWidth=3;align=center;verticalAlign=middle;fontFamily=Helvetica;fontColor=default;labelBackgroundColor=default;startArrow=ERone;startFill=0;endArrow=ERone;endFill=0;curved=0;endSize=12;startSize=12;" parent="1" source="44fCseGr7HNjQifV41mB-61" target="44fCseGr7HNjQifV41mB-64" edge="1">
                    <mxGeometry relative="1" as="geometry"/>
                </mxCell>
                <mxCell id="44fCseGr7HNjQifV41mB-74" value="Comment" style="swimlane;fontStyle=1;childLayout=stackLayout;horizontal=1;startSize=26;fillColor=none;horizontalStack=0;resizeParent=1;resizeParentMax=0;resizeLast=0;collapsible=1;marginBottom=0;whiteSpace=wrap;html=1;fontSize=16;" parent="1" vertex="1">
                    <mxGeometry x="490" y="1314" width="140" height="156" as="geometry"/>
                </mxCell>
                <mxCell id="44fCseGr7HNjQifV41mB-75" value="- commentId: string" style="text;strokeColor=none;fillColor=none;align=left;verticalAlign=top;spacingLeft=4;spacingRight=4;overflow=hidden;rotatable=0;points=[[0,0.5],[1,0.5]];portConstraint=eastwest;whiteSpace=wrap;html=1;fontSize=16;" parent="44fCseGr7HNjQifV41mB-74" vertex="1">
                    <mxGeometry y="26" width="140" height="26" as="geometry"/>
                </mxCell>
                <mxCell id="44fCseGr7HNjQifV41mB-76" value="- text: string" style="text;strokeColor=none;fillColor=none;align=left;verticalAlign=top;spacingLeft=4;spacingRight=4;overflow=hidden;rotatable=0;points=[[0,0.5],[1,0.5]];portConstraint=eastwest;whiteSpace=wrap;html=1;fontSize=16;" parent="44fCseGr7HNjQifV41mB-74" vertex="1">
                    <mxGeometry y="52" width="140" height="26" as="geometry"/>
                </mxCell>
                <mxCell id="44fCseGr7HNjQifV41mB-77" value="- createdAt: datetime" style="text;strokeColor=none;fillColor=none;align=left;verticalAlign=top;spacingLeft=4;spacingRight=4;overflow=hidden;rotatable=0;points=[[0,0.5],[1,0.5]];portConstraint=eastwest;whiteSpace=wrap;html=1;fontSize=16;" parent="44fCseGr7HNjQifV41mB-74" vertex="1">
                    <mxGeometry y="78" width="140" height="26" as="geometry"/>
                </mxCell>
                <mxCell id="44fCseGr7HNjQifV41mB-78" value="- userId: string" style="text;strokeColor=none;fillColor=none;align=left;verticalAlign=top;spacingLeft=4;spacingRight=4;overflow=hidden;rotatable=0;points=[[0,0.5],[1,0.5]];portConstraint=eastwest;whiteSpace=wrap;html=1;fontSize=16;" parent="44fCseGr7HNjQifV41mB-74" vertex="1">
                    <mxGeometry y="104" width="140" height="26" as="geometry"/>
                </mxCell>
                <mxCell id="44fCseGr7HNjQifV41mB-79" value="- taskId: string" style="text;strokeColor=none;fillColor=none;align=left;verticalAlign=top;spacingLeft=4;spacingRight=4;overflow=hidden;rotatable=0;points=[[0,0.5],[1,0.5]];portConstraint=eastwest;whiteSpace=wrap;html=1;fontSize=16;" parent="44fCseGr7HNjQifV41mB-74" vertex="1">
                    <mxGeometry y="130" width="140" height="26" as="geometry"/>
                </mxCell>
                <mxCell id="44fCseGr7HNjQifV41mB-82" value="Attachment" style="swimlane;fontStyle=1;childLayout=stackLayout;horizontal=1;startSize=26;fillColor=none;horizontalStack=0;resizeParent=1;resizeParentMax=0;resizeLast=0;collapsible=1;marginBottom=0;whiteSpace=wrap;html=1;fontSize=16;" parent="1" vertex="1">
                    <mxGeometry x="268" y="1232" width="140" height="182" as="geometry"/>
                </mxCell>
                <mxCell id="44fCseGr7HNjQifV41mB-83" value="- attachmentId: string" style="text;strokeColor=none;fillColor=none;align=left;verticalAlign=top;spacingLeft=4;spacingRight=4;overflow=hidden;rotatable=0;points=[[0,0.5],[1,0.5]];portConstraint=eastwest;whiteSpace=wrap;html=1;fontSize=16;" parent="44fCseGr7HNjQifV41mB-82" vertex="1">
                    <mxGeometry y="26" width="140" height="26" as="geometry"/>
                </mxCell>
                <mxCell id="44fCseGr7HNjQifV41mB-84" value="- fileName: string" style="text;strokeColor=none;fillColor=none;align=left;verticalAlign=top;spacingLeft=4;spacingRight=4;overflow=hidden;rotatable=0;points=[[0,0.5],[1,0.5]];portConstraint=eastwest;whiteSpace=wrap;html=1;fontSize=16;" parent="44fCseGr7HNjQifV41mB-82" vertex="1">
                    <mxGeometry y="52" width="140" height="26" as="geometry"/>
                </mxCell>
                <mxCell id="44fCseGr7HNjQifV41mB-85" value="- fileType: string" style="text;strokeColor=none;fillColor=none;align=left;verticalAlign=top;spacingLeft=4;spacingRight=4;overflow=hidden;rotatable=0;points=[[0,0.5],[1,0.5]];portConstraint=eastwest;whiteSpace=wrap;html=1;fontSize=16;" parent="44fCseGr7HNjQifV41mB-82" vertex="1">
                    <mxGeometry y="78" width="140" height="26" as="geometry"/>
                </mxCell>
                <mxCell id="44fCseGr7HNjQifV41mB-86" value="- fileSize: int" style="text;strokeColor=none;fillColor=none;align=left;verticalAlign=top;spacingLeft=4;spacingRight=4;overflow=hidden;rotatable=0;points=[[0,0.5],[1,0.5]];portConstraint=eastwest;whiteSpace=wrap;html=1;fontSize=16;" parent="44fCseGr7HNjQifV41mB-82" vertex="1">
                    <mxGeometry y="104" width="140" height="26" as="geometry"/>
                </mxCell>
                <mxCell id="44fCseGr7HNjQifV41mB-87" value="- uploadDate: datetime" style="text;strokeColor=none;fillColor=none;align=left;verticalAlign=top;spacingLeft=4;spacingRight=4;overflow=hidden;rotatable=0;points=[[0,0.5],[1,0.5]];portConstraint=eastwest;whiteSpace=wrap;html=1;fontSize=16;" parent="44fCseGr7HNjQifV41mB-82" vertex="1">
                    <mxGeometry y="130" width="140" height="26" as="geometry"/>
                </mxCell>
                <mxCell id="44fCseGr7HNjQifV41mB-88" value="- taskId: string" style="text;strokeColor=none;fillColor=none;align=left;verticalAlign=top;spacingLeft=4;spacingRight=4;overflow=hidden;rotatable=0;points=[[0,0.5],[1,0.5]];portConstraint=eastwest;whiteSpace=wrap;html=1;fontSize=16;" parent="44fCseGr7HNjQifV41mB-82" vertex="1">
                    <mxGeometry y="156" width="140" height="26" as="geometry"/>
                </mxCell>
                <mxCell id="44fCseGr7HNjQifV41mB-89" value="Event" style="swimlane;fontStyle=1;childLayout=stackLayout;horizontal=1;startSize=26;fillColor=none;horizontalStack=0;resizeParent=1;resizeParentMax=0;resizeLast=0;collapsible=1;marginBottom=0;whiteSpace=wrap;html=1;fontSize=16;" parent="1" vertex="1">
                    <mxGeometry x="38" y="1232" width="179" height="286" as="geometry"/>
                </mxCell>
                <mxCell id="44fCseGr7HNjQifV41mB-90" value="- eventId: string" style="text;strokeColor=none;fillColor=none;align=left;verticalAlign=top;spacingLeft=4;spacingRight=4;overflow=hidden;rotatable=0;points=[[0,0.5],[1,0.5]];portConstraint=eastwest;whiteSpace=wrap;html=1;fontSize=16;" parent="44fCseGr7HNjQifV41mB-89" vertex="1">
                    <mxGeometry y="26" width="179" height="26" as="geometry"/>
                </mxCell>
                <mxCell id="44fCseGr7HNjQifV41mB-91" value="- title: string" style="text;strokeColor=none;fillColor=none;align=left;verticalAlign=top;spacingLeft=4;spacingRight=4;overflow=hidden;rotatable=0;points=[[0,0.5],[1,0.5]];portConstraint=eastwest;whiteSpace=wrap;html=1;fontSize=16;" parent="44fCseGr7HNjQifV41mB-89" vertex="1">
                    <mxGeometry y="52" width="179" height="26" as="geometry"/>
                </mxCell>
                <mxCell id="44fCseGr7HNjQifV41mB-92" value="- description: string" style="text;strokeColor=none;fillColor=none;align=left;verticalAlign=top;spacingLeft=4;spacingRight=4;overflow=hidden;rotatable=0;points=[[0,0.5],[1,0.5]];portConstraint=eastwest;whiteSpace=wrap;html=1;fontSize=16;" parent="44fCseGr7HNjQifV41mB-89" vertex="1">
                    <mxGeometry y="78" width="179" height="26" as="geometry"/>
                </mxCell>
                <mxCell id="44fCseGr7HNjQifV41mB-93" value="- startDate: datetime" style="text;strokeColor=none;fillColor=none;align=left;verticalAlign=top;spacingLeft=4;spacingRight=4;overflow=hidden;rotatable=0;points=[[0,0.5],[1,0.5]];portConstraint=eastwest;whiteSpace=wrap;html=1;fontSize=16;" parent="44fCseGr7HNjQifV41mB-89" vertex="1">
                    <mxGeometry y="104" width="179" height="26" as="geometry"/>
                </mxCell>
                <mxCell id="44fCseGr7HNjQifV41mB-94" value="- endDate: datetime" style="text;strokeColor=none;fillColor=none;align=left;verticalAlign=top;spacingLeft=4;spacingRight=4;overflow=hidden;rotatable=0;points=[[0,0.5],[1,0.5]];portConstraint=eastwest;whiteSpace=wrap;html=1;fontSize=16;" parent="44fCseGr7HNjQifV41mB-89" vertex="1">
                    <mxGeometry y="130" width="179" height="26" as="geometry"/>
                </mxCell>
                <mxCell id="44fCseGr7HNjQifV41mB-95" value="- location: string" style="text;strokeColor=none;fillColor=none;align=left;verticalAlign=top;spacingLeft=4;spacingRight=4;overflow=hidden;rotatable=0;points=[[0,0.5],[1,0.5]];portConstraint=eastwest;whiteSpace=wrap;html=1;fontSize=16;" parent="44fCseGr7HNjQifV41mB-89" vertex="1">
                    <mxGeometry y="156" width="179" height="26" as="geometry"/>
                </mxCell>
                <mxCell id="44fCseGr7HNjQifV41mB-96" value="- isRecurring: boolean" style="text;strokeColor=none;fillColor=none;align=left;verticalAlign=top;spacingLeft=4;spacingRight=4;overflow=hidden;rotatable=0;points=[[0,0.5],[1,0.5]];portConstraint=eastwest;whiteSpace=wrap;html=1;fontSize=16;" parent="44fCseGr7HNjQifV41mB-89" vertex="1">
                    <mxGeometry y="182" width="179" height="26" as="geometry"/>
                </mxCell>
                <mxCell id="44fCseGr7HNjQifV41mB-97" value="- colorCode: string" style="text;strokeColor=none;fillColor=none;align=left;verticalAlign=top;spacingLeft=4;spacingRight=4;overflow=hidden;rotatable=0;points=[[0,0.5],[1,0.5]];portConstraint=eastwest;whiteSpace=wrap;html=1;fontSize=16;" parent="44fCseGr7HNjQifV41mB-89" vertex="1">
                    <mxGeometry y="208" width="179" height="26" as="geometry"/>
                </mxCell>
                <mxCell id="44fCseGr7HNjQifV41mB-98" value="- reminderTime: datetime" style="text;strokeColor=none;fillColor=none;align=left;verticalAlign=top;spacingLeft=4;spacingRight=4;overflow=hidden;rotatable=0;points=[[0,0.5],[1,0.5]];portConstraint=eastwest;whiteSpace=wrap;html=1;fontSize=16;" parent="44fCseGr7HNjQifV41mB-89" vertex="1">
                    <mxGeometry y="234" width="179" height="26" as="geometry"/>
                </mxCell>
                <mxCell id="44fCseGr7HNjQifV41mB-99" value="- projectId: string (nullable)" style="text;strokeColor=none;fillColor=none;align=left;verticalAlign=top;spacingLeft=4;spacingRight=4;overflow=hidden;rotatable=0;points=[[0,0.5],[1,0.5]];portConstraint=eastwest;whiteSpace=wrap;html=1;fontSize=16;" parent="44fCseGr7HNjQifV41mB-89" vertex="1">
                    <mxGeometry y="260" width="179" height="26" as="geometry"/>
                </mxCell>
                <mxCell id="44fCseGr7HNjQifV41mB-100" value="Team" style="swimlane;fontStyle=1;childLayout=stackLayout;horizontal=1;startSize=26;fillColor=none;horizontalStack=0;resizeParent=1;resizeParentMax=0;resizeLast=0;collapsible=1;marginBottom=0;whiteSpace=wrap;html=1;fontSize=16;" parent="1" vertex="1">
                    <mxGeometry x="1047.5" y="208" width="140" height="104" as="geometry"/>
                </mxCell>
                <mxCell id="44fCseGr7HNjQifV41mB-101" value="- teamId: string" style="text;strokeColor=none;fillColor=none;align=left;verticalAlign=top;spacingLeft=4;spacingRight=4;overflow=hidden;rotatable=0;points=[[0,0.5],[1,0.5]];portConstraint=eastwest;whiteSpace=wrap;html=1;fontSize=16;" parent="44fCseGr7HNjQifV41mB-100" vertex="1">
                    <mxGeometry y="26" width="140" height="26" as="geometry"/>
                </mxCell>
                <mxCell id="44fCseGr7HNjQifV41mB-102" value="- name: string" style="text;strokeColor=none;fillColor=none;align=left;verticalAlign=top;spacingLeft=4;spacingRight=4;overflow=hidden;rotatable=0;points=[[0,0.5],[1,0.5]];portConstraint=eastwest;whiteSpace=wrap;html=1;fontSize=16;" parent="44fCseGr7HNjQifV41mB-100" vertex="1">
                    <mxGeometry y="52" width="140" height="26" as="geometry"/>
                </mxCell>
                <mxCell id="44fCseGr7HNjQifV41mB-103" value="- description: string" style="text;strokeColor=none;fillColor=none;align=left;verticalAlign=top;spacingLeft=4;spacingRight=4;overflow=hidden;rotatable=0;points=[[0,0.5],[1,0.5]];portConstraint=eastwest;whiteSpace=wrap;html=1;fontSize=16;" parent="44fCseGr7HNjQifV41mB-100" vertex="1">
                    <mxGeometry y="78" width="140" height="26" as="geometry"/>
                </mxCell>
                <mxCell id="44fCseGr7HNjQifV41mB-104" value="TeamMember" style="swimlane;fontStyle=1;childLayout=stackLayout;horizontal=1;startSize=26;fillColor=none;horizontalStack=0;resizeParent=1;resizeParentMax=0;resizeLast=0;collapsible=1;marginBottom=0;whiteSpace=wrap;html=1;fontSize=16;" parent="1" vertex="1">
                    <mxGeometry x="1479" y="208" width="140" height="104" as="geometry"/>
                </mxCell>
                <mxCell id="44fCseGr7HNjQifV41mB-105" value="- userId: string" style="text;strokeColor=none;fillColor=none;align=left;verticalAlign=top;spacingLeft=4;spacingRight=4;overflow=hidden;rotatable=0;points=[[0,0.5],[1,0.5]];portConstraint=eastwest;whiteSpace=wrap;html=1;fontSize=16;" parent="44fCseGr7HNjQifV41mB-104" vertex="1">
                    <mxGeometry y="26" width="140" height="26" as="geometry"/>
                </mxCell>
                <mxCell id="44fCseGr7HNjQifV41mB-106" value="- teamId: string" style="text;strokeColor=none;fillColor=none;align=left;verticalAlign=top;spacingLeft=4;spacingRight=4;overflow=hidden;rotatable=0;points=[[0,0.5],[1,0.5]];portConstraint=eastwest;whiteSpace=wrap;html=1;fontSize=16;" parent="44fCseGr7HNjQifV41mB-104" vertex="1">
                    <mxGeometry y="52" width="140" height="26" as="geometry"/>
                </mxCell>
                <mxCell id="44fCseGr7HNjQifV41mB-107" value="- role: string" style="text;strokeColor=none;fillColor=none;align=left;verticalAlign=top;spacingLeft=4;spacingRight=4;overflow=hidden;rotatable=0;points=[[0,0.5],[1,0.5]];portConstraint=eastwest;whiteSpace=wrap;html=1;fontSize=16;" parent="44fCseGr7HNjQifV41mB-104" vertex="1">
                    <mxGeometry y="78" width="140" height="26" as="geometry"/>
                </mxCell>
                <mxCell id="oY_cb-PAJYQnFQbFR_PX-1" value="&lt;b&gt;&lt;font&gt;ProjectManager&lt;/font&gt;&lt;/b&gt;" style="swimlane;fontStyle=0;childLayout=stackLayout;horizontal=1;startSize=26;fillColor=none;horizontalStack=0;resizeParent=1;resizeParentMax=0;resizeLast=0;collapsible=1;marginBottom=0;whiteSpace=wrap;html=1;fontSize=16;" parent="1" vertex="1">
                    <mxGeometry x="1243" y="1290" width="285" height="138" as="geometry"/>
                </mxCell>
                <mxCell id="jyYXgW9yrYf-rZAXUQ_S-9" value="" style="line;strokeWidth=1;fillColor=none;align=left;verticalAlign=middle;spacingTop=-1;spacingLeft=3;spacingRight=3;rotatable=0;labelPosition=right;points=[];portConstraint=eastwest;strokeColor=inherit;" parent="oY_cb-PAJYQnFQbFR_PX-1" vertex="1">
                    <mxGeometry y="26" width="285" height="8" as="geometry"/>
                </mxCell>
                <mxCell id="jyYXgW9yrYf-rZAXUQ_S-10" value="+ createProject(details)" style="text;strokeColor=none;fillColor=none;align=left;verticalAlign=top;spacingLeft=4;spacingRight=4;overflow=hidden;rotatable=0;points=[[0,0.5],[1,0.5]];portConstraint=eastwest;whiteSpace=wrap;html=1;fontSize=16;" parent="oY_cb-PAJYQnFQbFR_PX-1" vertex="1">
                    <mxGeometry y="34" width="285" height="26" as="geometry"/>
                </mxCell>
                <mxCell id="jyYXgW9yrYf-rZAXUQ_S-30" value="+ editProject(details)" style="text;strokeColor=none;fillColor=none;align=left;verticalAlign=top;spacingLeft=4;spacingRight=4;overflow=hidden;rotatable=0;points=[[0,0.5],[1,0.5]];portConstraint=eastwest;whiteSpace=wrap;html=1;fontSize=16;" parent="oY_cb-PAJYQnFQbFR_PX-1" vertex="1">
                    <mxGeometry y="60" width="285" height="26" as="geometry"/>
                </mxCell>
                <mxCell id="jyYXgW9yrYf-rZAXUQ_S-31" value="+ deleteProject(projectName)" style="text;strokeColor=none;fillColor=none;align=left;verticalAlign=top;spacingLeft=4;spacingRight=4;overflow=hidden;rotatable=0;points=[[0,0.5],[1,0.5]];portConstraint=eastwest;whiteSpace=wrap;html=1;fontSize=16;" parent="oY_cb-PAJYQnFQbFR_PX-1" vertex="1">
                    <mxGeometry y="86" width="285" height="26" as="geometry"/>
                </mxCell>
                <mxCell id="jyYXgW9yrYf-rZAXUQ_S-32" value="+ addTaskToProject(projectId, taskId)" style="text;strokeColor=none;fillColor=none;align=left;verticalAlign=top;spacingLeft=4;spacingRight=4;overflow=hidden;rotatable=0;points=[[0,0.5],[1,0.5]];portConstraint=eastwest;whiteSpace=wrap;html=1;fontSize=16;" parent="oY_cb-PAJYQnFQbFR_PX-1" vertex="1">
                    <mxGeometry y="112" width="285" height="26" as="geometry"/>
                </mxCell>
                <mxCell id="oY_cb-PAJYQnFQbFR_PX-5" value="TeamMemberUser" style="swimlane;fontStyle=1;childLayout=stackLayout;horizontal=1;startSize=26;fillColor=none;horizontalStack=0;resizeParent=1;resizeParentMax=0;resizeLast=0;collapsible=1;marginBottom=0;whiteSpace=wrap;html=1;fontSize=16;" parent="1" vertex="1">
                    <mxGeometry x="1723" y="1208" width="163" height="60" as="geometry"/>
                </mxCell>
                <mxCell id="jyYXgW9yrYf-rZAXUQ_S-15" value="" style="line;strokeWidth=1;fillColor=none;align=left;verticalAlign=middle;spacingTop=-1;spacingLeft=3;spacingRight=3;rotatable=0;labelPosition=right;points=[];portConstraint=eastwest;strokeColor=inherit;fontFamily=Helvetica;fontSize=11;fontColor=default;labelBackgroundColor=default;" parent="oY_cb-PAJYQnFQbFR_PX-5" vertex="1">
                    <mxGeometry y="26" width="163" height="8" as="geometry"/>
                </mxCell>
                <mxCell id="oY_cb-PAJYQnFQbFR_PX-8" value="+ field: type" style="text;strokeColor=none;fillColor=none;align=left;verticalAlign=top;spacingLeft=4;spacingRight=4;overflow=hidden;rotatable=0;points=[[0,0.5],[1,0.5]];portConstraint=eastwest;whiteSpace=wrap;html=1;fontSize=16;" parent="oY_cb-PAJYQnFQbFR_PX-5" vertex="1">
                    <mxGeometry y="34" width="163" height="26" as="geometry"/>
                </mxCell>
                <mxCell id="jyYXgW9yrYf-rZAXUQ_S-2" value="&lt;b&gt;&lt;font style=&quot;font-size: 16px;&quot;&gt;ClientUser&lt;/font&gt;&lt;/b&gt;" style="swimlane;fontStyle=0;childLayout=stackLayout;horizontal=1;startSize=26;fillColor=none;horizontalStack=0;resizeParent=1;resizeParentMax=0;resizeLast=0;collapsible=1;marginBottom=0;whiteSpace=wrap;html=1;" parent="1" vertex="1">
                    <mxGeometry x="1548" y="1268" width="158" height="112" as="geometry"/>
                </mxCell>
                <mxCell id="jyYXgW9yrYf-rZAXUQ_S-3" value="+ field: type" style="text;strokeColor=none;fillColor=none;align=left;verticalAlign=top;spacingLeft=4;spacingRight=4;overflow=hidden;rotatable=0;points=[[0,0.5],[1,0.5]];portConstraint=eastwest;whiteSpace=wrap;html=1;fontSize=16;" parent="jyYXgW9yrYf-rZAXUQ_S-2" vertex="1">
                    <mxGeometry y="26" width="158" height="26" as="geometry"/>
                </mxCell>
                <mxCell id="jyYXgW9yrYf-rZAXUQ_S-4" value="+ field: type" style="text;strokeColor=none;fillColor=none;align=left;verticalAlign=top;spacingLeft=4;spacingRight=4;overflow=hidden;rotatable=0;points=[[0,0.5],[1,0.5]];portConstraint=eastwest;whiteSpace=wrap;html=1;fontSize=16;" parent="jyYXgW9yrYf-rZAXUQ_S-2" vertex="1">
                    <mxGeometry y="52" width="158" height="26" as="geometry"/>
                </mxCell>
                <mxCell id="jyYXgW9yrYf-rZAXUQ_S-16" value="" style="line;strokeWidth=1;fillColor=none;align=left;verticalAlign=middle;spacingTop=-1;spacingLeft=3;spacingRight=3;rotatable=0;labelPosition=right;points=[];portConstraint=eastwest;strokeColor=inherit;fontFamily=Helvetica;fontSize=11;fontColor=default;labelBackgroundColor=default;" parent="jyYXgW9yrYf-rZAXUQ_S-2" vertex="1">
                    <mxGeometry y="78" width="158" height="8" as="geometry"/>
                </mxCell>
                <mxCell id="jyYXgW9yrYf-rZAXUQ_S-5" value="+ field: type" style="text;strokeColor=none;fillColor=none;align=left;verticalAlign=top;spacingLeft=4;spacingRight=4;overflow=hidden;rotatable=0;points=[[0,0.5],[1,0.5]];portConstraint=eastwest;whiteSpace=wrap;html=1;fontSize=16;" parent="jyYXgW9yrYf-rZAXUQ_S-2" vertex="1">
                    <mxGeometry y="86" width="158" height="26" as="geometry"/>
                </mxCell>
                <mxCell id="jyYXgW9yrYf-rZAXUQ_S-14" value="" style="edgeStyle=orthogonalEdgeStyle;shape=connector;curved=0;rounded=1;orthogonalLoop=1;jettySize=auto;html=1;strokeColor=default;align=center;verticalAlign=middle;fontFamily=Helvetica;fontSize=11;fontColor=default;labelBackgroundColor=default;endArrow=ERone;strokeWidth=3;startArrow=ERone;startFill=0;endFill=0;" parent="1" source="44fCseGr7HNjQifV41mB-8" target="44fCseGr7HNjQifV41mB-10" edge="1">
                    <mxGeometry relative="1" as="geometry"/>
                </mxCell>
            </root>
        </mxGraphModel>
    </diagram>
</mxfile>